<mxfile host="Electron" agent="Mozilla/5.0 (Windows NT 10.0; Win64; x64) AppleWebKit/537.36 (KHTML, like Gecko) draw.io/26.2.15 Chrome/134.0.6998.205 Electron/35.2.1 Safari/537.36" version="26.2.15">
  <diagram name="第 1 页" id="jMC8cFNBr-7_cvs-40Xw">
    <mxGraphModel dx="1426" dy="849" grid="1" gridSize="10" guides="1" tooltips="1" connect="1" arrows="1" fold="1" page="1" pageScale="1" pageWidth="827" pageHeight="1169" math="0" shadow="0">
      <root>
        <mxCell id="0" />
        <mxCell id="1" parent="0" />
        <mxCell id="-CFV6WcTNAhAw3bK2VPN-1" value="&lt;font style=&quot;font-size: 21px;&quot;&gt;sBlockOfCode&lt;/font&gt;" style="rounded=1;whiteSpace=wrap;html=1;sketch=1;curveFitting=1;jiggle=2;" vertex="1" parent="1">
          <mxGeometry x="60" y="450" width="150" height="60" as="geometry" />
        </mxCell>
        <mxCell id="-CFV6WcTNAhAw3bK2VPN-3" style="edgeStyle=orthogonalEdgeStyle;rounded=0;orthogonalLoop=1;jettySize=auto;html=1;entryX=1;entryY=0.5;entryDx=0;entryDy=0;flowAnimation=1;strokeWidth=3;" edge="1" parent="1" source="-CFV6WcTNAhAw3bK2VPN-2" target="-CFV6WcTNAhAw3bK2VPN-1">
          <mxGeometry relative="1" as="geometry" />
        </mxCell>
        <mxCell id="-CFV6WcTNAhAw3bK2VPN-2" value="&lt;div style=&quot;line-height: 190%;&quot;&gt;&lt;font style=&quot;font-size: 27px;&quot;&gt;public void doSomething(String s){&lt;/font&gt;&lt;div&gt;&lt;font style=&quot;font-size: 27px;&quot;&gt;SYstem.out.println(s);&lt;/font&gt;&lt;/div&gt;&lt;div&gt;&lt;font style=&quot;font-size: 27px;&quot;&gt;}&lt;/font&gt;&lt;/div&gt;&lt;/div&gt;" style="rounded=1;whiteSpace=wrap;html=1;sketch=1;curveFitting=1;jiggle=2;" vertex="1" parent="1">
          <mxGeometry x="354" y="420" width="456" height="120" as="geometry" />
        </mxCell>
      </root>
    </mxGraphModel>
  </diagram>
</mxfile>
